<?xml version="1.0" encoding="utf-8"?>
<!-- Generator: Adobe Illustrator 24.0.2, SVG Export Plug-In . SVG Version: 6.00 Build 0)  -->
<svg version="1.1" id="Layer_1" xmlns="http://www.w3.org/2000/svg" xmlns:xlink="http://www.w3.org/1999/xlink" x="0px" y="0px"
	 viewBox="0 0 351 321" style="enable-background:new 0 0 351 321;" xml:space="preserve">
<style type="text/css">
	.st0{fill:#2785C3;}
	.st1{fill:#3FC0E1;}
	.st2{fill:#298DC7;}
	.st3{fill:#40C2E2;}
	.st4{fill:#2C94CB;}
	.st5{fill:#3BB7DC;}
	.st6{fill:#38AFD8;}
	.st7{fill:#2D96CC;}
	.st8{fill:#39B0D9;}
	.st9{fill:#35A7D5;}
	.st10{fill:#319ED0;}
	.st11{fill:#3EBADE;}
	.st12{fill:#2A8FC9;}
	.st13{fill:#309DCF;}
	.st14{fill:#33A6D4;}
	.st15{fill:#F8FCFD;}
	.st16{fill:#3BADD7;}
	.st17{fill:#2C99CD;}
	.st18{fill:#33A2D2;}
	.st19{fill:#3FB3DA;}
	.st20{fill:#45B8DD;}
</style>
<path class="st0" d="M184.91,61.3c-4.75-4.1-8.77-2.25-13.61,0.61c-24.57,14.54-49.35,28.71-74.16,42.83
	c-2.44,1.39-3.34,2.74-3.05,5.37c0.85,7.59,1.58,15.2,2.36,22.8c-2.75,1.03-5.5,2.05-8.25,3.08c-1.01-10.57-2.14-21.12-2.88-31.71
	c-0.1-1.47,1.34-3.73,2.71-4.52c28.57-16.58,57.26-32.94,85.81-49.53c3.43-2,6.14-2.52,9.33,0.04c1.79,1.43,3.88,2.46,5.84,3.67
	C187.65,56.39,186.28,58.84,184.91,61.3z"/>
<path class="st1" d="M173.98,226.27c1.51,0.97,3.03,1.94,4.68,3c19.3-13.55,34.25-30.85,46.01-51.38
	c5.54,3.18,10.82,6.21,16.85,9.67c3.95-8.76,7.73-17.16,11.52-25.56c3.36-1.33,6.73-2.65,10.09-3.98
	c-3.81,14.78-10.74,28.12-18.74,41.55c-5.61-3.22-10.89-6.24-16.56-9.5c-12.89,20.08-29.08,36.91-49.55,50.24
	c-3.53-2.75-7.03-5.49-10.53-8.22C169.83,230.16,171.91,228.21,173.98,226.27z"/>
<path class="st2" d="M184.93,83.19c-4.84-3.78-9.02-2.07-13.8,0.78c-17.28,10.29-34.75,20.28-52.31,30.08
	c-4.21,2.35-5.54,4.91-4.32,9.55c1.21,4.63,1.7,9.46,2.61,14.83c-2.49,0.92-5.02,1.85-9.02,3.33c-1.13-9.86-2.27-18.99-3.09-28.14
	c-0.09-0.96,1.46-2.43,2.58-3.08c22.71-13.19,45.45-26.33,68.28-39.31c1.37-0.78,3.8-0.73,5.3-0.07c3.1,1.36,5.91,3.4,8.83,5.16
	C188.29,78.6,186.61,80.89,184.93,83.19z"/>
<path class="st3" d="M161.37,240.83c4.71,3.09,9.52,6.04,14.08,9.34c2.27,1.65,3.92,1.47,6.2,0.05
	c16.94-10.6,31.51-23.81,43.93-39.42c2.06-2.59,4.07-5.22,6.39-8.21c2.32,1.35,4.56,2.66,7.78,4.54
	c-5.1,6.33-9.68,12.55-14.81,18.28c-12.28,13.71-26.44,25.19-42.2,34.73c-2.88,1.75-5.28,2.19-8.16,0.1
	c-6.57-4.77-13.26-9.37-19.89-14.04C156.91,244.41,159.14,242.62,161.37,240.83z"/>
<path class="st4" d="M131.25,149.98c-2.04-7.84-4.1-15.68-6.11-23.53c-0.64-2.49-0.06-4.21,2.51-5.66
	c15.92-8.99,31.69-18.24,47.62-27.2c1.55-0.87,4.17-1.1,5.75-0.39c3.51,1.56,6.68,3.9,9.98,5.92c-2.08,2-4.16,3.99-6.24,5.99
	c-2.92-0.19-4.59-4.34-8.46-2.05c-12.72,7.53-25.58,14.84-38.5,22.04c-2.73,1.52-3.32,3.42-2.65,6.11
	c1.23,4.93,2.51,9.85,3.77,14.78C136.36,147.33,133.8,148.65,131.25,149.98z"/>
<path class="st5" d="M220.9,161.99c-9.04,21.97-23.75,39.53-42.44,54.95c-4.07-3.73-7.92-7.26-11.77-10.79
	c2.2-1.75,4.41-3.5,6.61-5.25c1.71,1.28,3.43,2.57,5.38,4.03c12.38-10.3,21.78-23.06,29.81-36.93c1.92-0.71,3.93-1.27,5.76-2.18
	C216.54,164.69,218.69,163.28,220.9,161.99z"/>
<path class="st5" d="M161.37,240.83c-2.23,1.79-4.46,3.57-6.69,5.36c-5.98-5.37-11.96-10.73-17.94-16.1
	c2.71-1.35,5.42-2.7,8.13-4.05c5.19-3.65,10.39-7.3,15.82-11.11c4.33,3.69,8.81,7.52,13.29,11.34c-2.07,1.95-4.15,3.89-6.22,5.84
	c-1.58-1.16-3.31-2.17-4.72-3.51c-1.84-1.75-3.29-2.05-5.51-0.37c-6.07,4.58-6.15,5.27-0.02,9.64
	C158.83,238.81,160.08,239.84,161.37,240.83z"/>
<path class="st6" d="M220.9,161.99c-2.21,1.29-4.36,2.7-6.65,3.83c-1.83,0.9-3.83,1.46-5.75,2.18
	c6.71-12.65,11.11-26.13,14.35-40.03c2.94-1.74,5.87-3.49,8.81-5.23c-0.43,3.89-0.29,7.96-1.41,11.64
	C227.43,143.68,224.05,152.8,220.9,161.99z"/>
<path class="st6" d="M237.8,146.95c1.62-7.76,3.41-15.49,4.76-23.3c0.42-2.43-0.39-5.06-0.64-7.6c2.04-2.04,4.08-4.09,6.12-6.13
	c3.7,0.88,4.89,3.01,4.16,6.84c-1.65,8.71-2.97,17.48-4.42,26.23c-1.75,0.66-3.5,1.3-5.24,1.99
	C240.94,145.61,239.38,146.29,237.8,146.95z"/>
<path class="st7" d="M101.06,152.81c5.92-1.86,11.84-3.71,18.3-5.74c1.73,4.97,3.43,9.86,5.14,14.75c-2.54,1.07-5.08,2.15-7.61,3.22
	c-1.07-2.02-2.13-4.03-3.43-6.49c-5.83,1.93-11.56,3.82-17.79,5.88c-0.6-2.06-1.1-3.75-1.59-5.44
	C98.38,159.17,100.83,157.24,101.06,152.81z"/>
<path class="st8" d="M260.6,133.93c0.73-7.4,1.64-14.79,2.07-22.2c0.13-2.19-1.09-4.46-1.69-6.69c2.03-2.02,4.05-4.04,6.08-6.07
	c3.93,0.72,5.37,3,4.93,6.99c-0.88,7.99-1.5,16.02-2.22,24.03C266.71,131.3,263.66,132.61,260.6,133.93z"/>
<path class="st9" d="M267.06,98.97c-2.03,2.02-4.05,4.04-6.08,6.07c-8.96-5.01-17.92-10.01-27.17-15.18
	c1.68-2.59,3.08-4.77,4.96-7.68C248.28,87.81,257.67,93.39,267.06,98.97z"/>
<path class="st10" d="M222.97,105.09c-4.89-2.67-9.78-5.34-15.1-8.24c3.25-4.67,6.15-8.83,9.05-13c3.69,0.68,8.56-2.67,11.07-7.63
	c2.86,0.73,3.31,2.02,1.5,4.52c-3.01,4.15-5.73,8.52-8.79,13.12c2.88,1.79,5.58,3.47,8.28,5.15
	C226.98,101.03,224.97,103.06,222.97,105.09z"/>
<path class="st5" d="M237.8,146.95c1.58-0.66,3.14-1.34,4.73-1.97c1.74-0.69,3.49-1.33,5.24-1.99c-3.47,10.45-6.93,20.89-10.6,31.93
	c-3.53-1.99-5.79-3.27-8.19-4.63C231.98,162.35,234.89,154.65,237.8,146.95z"/>
<path class="st11" d="M260.6,133.93c3.06-1.31,6.11-2.63,9.17-3.94c-2.21,9.35-4.42,18.7-6.64,28.04
	c-3.36,1.33-6.73,2.65-10.09,3.98C255.56,152.65,258.08,143.29,260.6,133.93z"/>
<path class="st10" d="M111.98,198.03c-3.84-7.12-7.69-14.22-11.49-21.36c-0.6-1.14-0.96-2.41-1.62-4.12
	c2.86-0.91,5.44-1.74,8.14-2.6c4.16,8.13,8.21,16.05,12.26,23.96C116.84,195.29,114.41,196.66,111.98,198.03z"/>
<path class="st12" d="M184.91,61.3c1.37-2.46,2.74-4.91,4.11-7.37c7.37,4.24,14.74,8.47,22.11,12.71c-1.82,2.17-3.63,4.34-5.45,6.51
	C198.76,69.2,191.84,65.25,184.91,61.3z"/>
<path class="st13" d="M131.25,149.98c2.55-1.33,5.11-2.66,7.66-3.99c3.08,7.23,6.16,14.46,9.24,21.69c-2.34,1.43-4.68,2.87-7.02,4.3
	C137.84,164.65,134.54,157.32,131.25,149.98z"/>
<path class="st14" d="M231.66,122.74c-2.94,1.74-5.87,3.49-8.81,5.23c-6.35-3.96-12.71-7.92-19.06-11.88c2.3-1.82,4.6-3.64,6.9-5.46
	C217.67,114.67,224.67,118.71,231.66,122.74z"/>
<path class="st12" d="M101.06,152.81c-0.23,4.43-2.68,6.36-6.99,6.18c-1.96-7.67-3.91-15.34-5.87-23.01
	c2.75-1.03,5.5-2.05,8.25-3.08C97.99,139.54,99.53,146.18,101.06,152.81z"/>
<path class="st14" d="M222.97,105.09c2-2.03,4.01-4.05,6.01-6.08c6.35,3.64,12.7,7.27,19.04,10.91c-2.04,2.04-4.08,4.09-6.12,6.13
	C235.6,112.39,229.28,108.74,222.97,105.09z"/>
<path class="st9" d="M141.13,171.99c2.34-1.43,4.68-2.87,7.02-4.3c3.96,6.08,7.91,12.16,11.87,18.25c-2.24,1.68-4.47,3.36-6.71,5.05
	C149.25,184.65,145.19,178.32,141.13,171.99z"/>
<path class="st14" d="M111.98,198.03c2.43-1.37,4.86-2.74,7.29-4.12c3.94,5.64,7.87,11.28,11.81,16.92
	c-2.16,1.79-4.33,3.57-6.49,5.36C120.39,210.14,116.19,204.09,111.98,198.03z"/>
<path class="st9" d="M133.2,179.66c3.99,6,7.99,12.01,11.98,18.01c-2.1,1.85-4.19,3.69-6.29,5.54c-4.29-6.41-8.58-12.82-12.87-19.22
	C128.41,182.55,130.8,181.11,133.2,179.66z"/>
<path class="st13" d="M210.68,110.64c-2.3,1.82-4.6,3.64-6.9,5.46c-6.35-3.66-12.69-7.32-19.04-10.98c2.08-2,4.16-3.99,6.24-5.99
	C197.56,102.96,204.12,106.8,210.68,110.64z"/>
<path class="st13" d="M133.2,179.66c-2.39,1.44-4.78,2.89-7.17,4.33c-3.05-6.32-6.09-12.63-9.14-18.95
	c2.54-1.07,5.07-2.15,7.61-3.22C127.4,167.77,130.3,173.72,133.2,179.66z"/>
<path class="st7" d="M205.69,73.15c1.82-2.17,3.63-4.34,5.45-6.51c5.62,3.19,11.23,6.39,16.85,9.58c-2.51,4.96-7.38,8.32-11.07,7.63
	c1.21-1.95,1.27-3.3-1.23-4.56C212.21,77.54,209.01,75.22,205.69,73.15z"/>
<path class="st8" d="M124.6,216.2c2.16-1.79,4.33-3.57,6.49-5.36c4.6,5.07,9.19,10.13,13.79,15.2c-2.71,1.35-5.42,2.7-8.13,4.05
	C132.69,225.46,128.65,220.83,124.6,216.2z"/>
<path class="st8" d="M153.31,190.98c2.24-1.68,4.47-3.36,6.71-5.05c4.43,4.99,8.85,9.98,13.28,14.96c-2.2,1.75-4.41,3.5-6.61,5.25
	C162.23,201.09,157.77,196.04,153.31,190.98z"/>
<path class="st7" d="M184.93,83.19c1.68-2.3,3.37-4.59,5.05-6.89c5,2.82,10.01,5.65,15.41,8.69c-1.79,2.63-3.33,4.87-5.11,7.49
	C195.03,89.31,189.98,86.25,184.93,83.19z"/>
<path class="st8" d="M138.89,203.22c2.1-1.85,4.19-3.69,6.29-5.54c2.9,3.37,5.8,6.73,9.09,10.56c-2.27,1.88-4.34,3.59-6.99,5.78
	C144.29,210.17,141.59,206.69,138.89,203.22z"/>
<path class="st15" d="M173.3,200.9c-4.43-4.99-8.85-9.98-13.28-14.96c-3.96-6.08-7.91-12.16-11.87-18.25
	c-3.08-7.23-6.16-14.46-9.24-21.69c-1.26-4.93-2.53-9.85-3.77-14.78c-0.67-2.69-0.09-4.58,2.65-6.11
	c12.91-7.2,25.77-14.51,38.5-22.04c3.87-2.29,5.54,1.86,8.46,2.05c6.35,3.66,12.69,7.32,19.04,10.98
	c6.35,3.96,12.71,7.92,19.06,11.88c-3.24,13.9-7.64,27.38-14.35,40.03c-8.04,13.87-17.43,26.63-29.82,36.93
	C176.73,203.47,175.01,202.18,173.3,200.9z M188.19,119.3c-7.32-0.08-14.7,0.41-21.94-0.37c-9.2-0.99-15.32,4.49-23.44,8.95
	c14.29,0,27.24,0,40.18,0c9.97,0,19.93,0,31.09,0C205.38,122.58,198.11,116.94,188.19,119.3z M175.06,170
	c0.06-4.48,0.41-8.99,0.11-13.45c-0.53-7.84-0.13-15.25,6.48-20.82c0.13-0.11-0.04-0.58-0.1-1.14c-13.36,0-26.72,0-40.09,0
	c0.13,7.77,0.88,8.56,7.92,8.56c5.44,0,10.87,0,17.25,0c0,10.35,0,20.11,0,29.87c-1.6,11.58,0.57,17.1,8.42,21.27
	C175.06,186.16,175.06,178.08,175.06,170z M215.9,135.08c-0.57-0.32-0.85-0.61-1.13-0.61c-5.48-0.07-10.97-0.23-16.45-0.07
	c-2.37,0.07-5.58,0.02-6.92,1.43c-3.59,3.78-8.21,7.99-9.09,12.65c-1.48,7.93-0.41,16.33-0.41,24.38
	c12.77-6.84,7.48-19.24,9.24-29.69c5.41,0,10.38,0,15.34,0C214.3,143.15,214.3,143.15,215.9,135.08z M182.51,194.68
	c5.89-4.85,10.36-10.01,7.56-18.51C184.99,181.45,179.5,186.13,182.51,194.68z"/>
<path class="st16" d="M166.64,173.03c0-9.76,0-19.52,0-29.87c-6.38,0-11.82,0-17.25,0c-7.04,0-7.79-0.79-7.92-8.56
	c13.37,0,26.73,0,40.09,0c0.06,0.56,0.23,1.03,0.1,1.14c-6.61,5.57-7.01,12.97-6.48,20.82c0.3,4.46-0.05,8.96-0.11,13.45
	C172.26,171.01,169.45,172.02,166.64,173.03z"/>
<path class="st16" d="M215.9,135.08c-1.6,8.07-1.6,8.07-9.41,8.08c-4.96,0-9.93,0-15.34,0c-1.76,10.45,3.53,22.85-9.24,29.69
	c0-8.04-1.08-16.45,0.41-24.38c0.87-4.66,5.49-8.86,9.09-12.65c1.34-1.41,4.55-1.36,6.92-1.43c5.48-0.16,10.97,0.01,16.45,0.07
	C215.06,134.47,215.34,134.76,215.9,135.08z"/>
<path class="st17" d="M182.99,127.88c-12.95,0-25.89,0-40.18,0c8.12-4.46,14.24-9.94,23.44-8.95c7.24,0.78,14.62,0.29,21.94,0.37
	C186.46,122.16,184.72,125.02,182.99,127.88z"/>
<path class="st18" d="M182.99,127.88c1.73-2.86,3.46-5.72,5.2-8.58c9.92-2.36,17.19,3.28,25.9,8.58
	C202.93,127.88,192.96,127.88,182.99,127.88z"/>
<path class="st19" d="M166.64,173.03c2.81-1.01,5.62-2.02,8.42-3.03c0,8.08,0,16.16,0,24.29
	C167.21,190.13,165.04,184.6,166.64,173.03z"/>
<path class="st20" d="M182.51,194.68c-3.01-8.55,2.48-13.23,7.56-18.51C192.87,184.67,188.4,189.83,182.51,194.68z"/>
</svg>
